<svg xmlns="http://www.w3.org/2000/svg" viewBox="0 0 32 32">
  <!-- Watermelon pixel art - true transparent background -->
  <!-- Black outline top -->
  <rect x="14" y="2" width="2" height="2" fill="#000"/>
  <rect x="12" y="4" width="2" height="2" fill="#000"/>
  <rect x="16" y="4" width="2" height="2" fill="#000"/>
  <rect x="10" y="6" width="2" height="2" fill="#000"/>
  <rect x="18" y="6" width="2" height="2" fill="#000"/>
  <rect x="8" y="8" width="2" height="2" fill="#000"/>
  <rect x="20" y="8" width="2" height="2" fill="#000"/>
  <rect x="6" y="10" width="2" height="2" fill="#000"/>
  <rect x="22" y="10" width="2" height="2" fill="#000"/>
  <rect x="4" y="12" width="2" height="2" fill="#000"/>
  <rect x="24" y="12" width="2" height="2" fill="#000"/>
  <rect x="4" y="14" width="2" height="2" fill="#000"/>
  <rect x="24" y="14" width="2" height="2" fill="#000"/>
  <rect x="4" y="16" width="2" height="2" fill="#000"/>
  <rect x="24" y="16" width="2" height="2" fill="#000"/>
  <rect x="4" y="18" width="2" height="2" fill="#000"/>
  <rect x="24" y="18" width="2" height="2" fill="#000"/>
  
  <!-- Red flesh -->
  <rect x="14" y="4" width="2" height="2" fill="#ff4757"/>
  <rect x="12" y="6" width="2" height="2" fill="#ff4757"/>
  <rect x="14" y="6" width="2" height="2" fill="#ff4757"/>
  <rect x="16" y="6" width="2" height="2" fill="#ff4757"/>
  <rect x="10" y="8" width="2" height="2" fill="#ff4757"/>
  <rect x="12" y="8" width="2" height="2" fill="#ff4757"/>
  <rect x="14" y="8" width="2" height="2" fill="#ff4757"/>
  <rect x="16" y="8" width="2" height="2" fill="#ff4757"/>
  <rect x="18" y="8" width="2" height="2" fill="#ff4757"/>
  <rect x="8" y="10" width="2" height="2" fill="#ff4757"/>
  <rect x="10" y="10" width="2" height="2" fill="#ff4757"/>
  <rect x="12" y="10" width="2" height="2" fill="#ff4757"/>
  <rect x="14" y="10" width="2" height="2" fill="#ff4757"/>
  <rect x="16" y="10" width="2" height="2" fill="#ff4757"/>
  <rect x="18" y="10" width="2" height="2" fill="#ff4757"/>
  <rect x="20" y="10" width="2" height="2" fill="#ff4757"/>
  <rect x="6" y="12" width="2" height="2" fill="#ff4757"/>
  <rect x="8" y="12" width="2" height="2" fill="#ff4757"/>
  <rect x="10" y="12" width="2" height="2" fill="#ff4757"/>
  <rect x="12" y="12" width="2" height="2" fill="#ff4757"/>
  <rect x="14" y="12" width="2" height="2" fill="#ff4757"/>
  <rect x="16" y="12" width="2" height="2" fill="#ff4757"/>
  <rect x="18" y="12" width="2" height="2" fill="#ff4757"/>
  <rect x="20" y="12" width="2" height="2" fill="#ff4757"/>
  <rect x="22" y="12" width="2" height="2" fill="#ff4757"/>
  <rect x="6" y="14" width="2" height="2" fill="#ff4757"/>
  <rect x="8" y="14" width="2" height="2" fill="#ff4757"/>
  <rect x="10" y="14" width="2" height="2" fill="#ff4757"/>
  <rect x="12" y="14" width="2" height="2" fill="#ff4757"/>
  <rect x="14" y="14" width="2" height="2" fill="#ff4757"/>
  <rect x="16" y="14" width="2" height="2" fill="#ff4757"/>
  <rect x="18" y="14" width="2" height="2" fill="#ff4757"/>
  <rect x="20" y="14" width="2" height="2" fill="#ff4757"/>
  <rect x="22" y="14" width="2" height="2" fill="#ff4757"/>
  <rect x="6" y="16" width="2" height="2" fill="#ff4757"/>
  <rect x="8" y="16" width="2" height="2" fill="#ff4757"/>
  <rect x="10" y="16" width="2" height="2" fill="#ff4757"/>
  <rect x="12" y="16" width="2" height="2" fill="#ff4757"/>
  <rect x="14" y="16" width="2" height="2" fill="#ff4757"/>
  <rect x="16" y="16" width="2" height="2" fill="#ff4757"/>
  <rect x="18" y="16" width="2" height="2" fill="#ff4757"/>
  <rect x="20" y="16" width="2" height="2" fill="#ff4757"/>
  <rect x="22" y="16" width="2" height="2" fill="#ff4757"/>
  <rect x="6" y="18" width="2" height="2" fill="#ff4757"/>
  <rect x="8" y="18" width="2" height="2" fill="#ff4757"/>
  <rect x="10" y="18" width="2" height="2" fill="#ff4757"/>
  <rect x="12" y="18" width="2" height="2" fill="#ff4757"/>
  <rect x="14" y="18" width="2" height="2" fill="#ff4757"/>
  <rect x="16" y="18" width="2" height="2" fill="#ff4757"/>
  <rect x="18" y="18" width="2" height="2" fill="#ff4757"/>
  <rect x="20" y="18" width="2" height="2" fill="#ff4757"/>
  <rect x="22" y="18" width="2" height="2" fill="#ff4757"/>
  
  <!-- Seeds (black) -->
  <rect x="10" y="10" width="2" height="2" fill="#000"/>
  <rect x="18" y="10" width="2" height="2" fill="#000"/>
  <rect x="14" y="12" width="2" height="2" fill="#000"/>
  <rect x="8" y="14" width="2" height="2" fill="#000"/>
  <rect x="20" y="14" width="2" height="2" fill="#000"/>
  <rect x="12" y="16" width="2" height="2" fill="#000"/>
  <rect x="16" y="16" width="2" height="2" fill="#000"/>
  
  <!-- Green rind bottom -->
  <rect x="4" y="20" width="2" height="2" fill="#000"/>
  <rect x="6" y="20" width="2" height="2" fill="#2ed573"/>
  <rect x="8" y="20" width="2" height="2" fill="#2ed573"/>
  <rect x="10" y="20" width="2" height="2" fill="#2ed573"/>
  <rect x="12" y="20" width="2" height="2" fill="#2ed573"/>
  <rect x="14" y="20" width="2" height="2" fill="#2ed573"/>
  <rect x="16" y="20" width="2" height="2" fill="#2ed573"/>
  <rect x="18" y="20" width="2" height="2" fill="#2ed573"/>
  <rect x="20" y="20" width="2" height="2" fill="#2ed573"/>
  <rect x="22" y="20" width="2" height="2" fill="#2ed573"/>
  <rect x="24" y="20" width="2" height="2" fill="#000"/>
  
  <!-- Dark green bottom edge -->
  <rect x="6" y="22" width="2" height="2" fill="#000"/>
  <rect x="8" y="22" width="2" height="2" fill="#1e8449"/>
  <rect x="10" y="22" width="2" height="2" fill="#1e8449"/>
  <rect x="12" y="22" width="2" height="2" fill="#1e8449"/>
  <rect x="14" y="22" width="2" height="2" fill="#1e8449"/>
  <rect x="16" y="22" width="2" height="2" fill="#1e8449"/>
  <rect x="18" y="22" width="2" height="2" fill="#1e8449"/>
  <rect x="20" y="22" width="2" height="2" fill="#1e8449"/>
  <rect x="22" y="22" width="2" height="2" fill="#000"/>
  
  <!-- Bottom outline -->
  <rect x="8" y="24" width="2" height="2" fill="#000"/>
  <rect x="10" y="24" width="2" height="2" fill="#000"/>
  <rect x="12" y="24" width="2" height="2" fill="#000"/>
  <rect x="14" y="24" width="2" height="2" fill="#000"/>
  <rect x="16" y="24" width="2" height="2" fill="#000"/>
  <rect x="18" y="24" width="2" height="2" fill="#000"/>
  <rect x="20" y="24" width="2" height="2" fill="#000"/>
</svg>
